<svg width="800" height="800" viewBox="0 0 800 800" fill="none" xmlns="http://www.w3.org/2000/svg">
<circle cx="400" cy="400" r="400" fill="#F3F0E6"/>
<path d="M270.024 625.916C274.683 628.523 278.502 631.495 281.481 634.831C284.366 638.194 286.398 641.874 287.578 645.871C288.662 649.895 288.804 654.185 288.001 658.742C287.199 663.298 285.392 668.087 282.582 673.109C279.737 678.191 276.549 682.326 273.016 685.513C269.424 688.667 265.595 690.894 261.53 692.194C257.371 693.521 253.147 693.898 248.859 693.326C244.571 692.753 240.28 691.265 235.984 688.86C232.657 686.998 229.825 684.817 227.489 682.318C225.12 679.879 223.364 677.268 222.221 674.483C221.079 671.698 220.593 668.804 220.764 665.801C220.875 662.764 221.729 659.747 223.328 656.748L237.176 660.328C235.754 662.869 235.143 665.308 235.345 667.645C235.485 669.949 236.226 672.032 237.567 673.895C238.814 675.785 240.435 677.288 242.432 678.406C244.186 679.388 246.144 680.007 248.305 680.263C250.371 680.546 252.588 680.277 254.954 679.456C257.226 678.662 259.544 677.218 261.908 675.124C264.211 672.997 266.412 670.057 268.512 666.306C271.255 661.406 272.777 657.054 273.079 653.25C273.32 649.412 272.607 646.073 270.939 643.232C269.237 640.452 266.844 638.199 263.758 636.472C260.43 634.609 257.487 633.836 254.927 634.151C252.272 634.493 249.959 635.502 247.987 637.179C245.921 638.883 244.181 640.928 242.766 643.314L232.398 635.008C234.253 631.836 236.43 629.082 238.929 626.746C241.395 624.471 244.188 622.816 247.309 621.783C250.396 620.809 253.835 620.628 257.624 621.24C261.414 621.851 265.547 623.41 270.024 625.916Z" fill="#DA4E3B"/>
<path d="M220.46 587.32C224.028 590.811 226.69 594.484 228.448 598.338C230.157 602.242 230.985 606.254 230.931 610.373C230.78 614.493 229.722 618.647 227.757 622.836C225.694 627.026 222.674 631.152 218.698 635.215C213.024 641.013 207.328 644.801 201.611 646.579C195.846 648.406 190.282 648.54 184.921 646.98C179.462 645.421 174.503 642.459 170.043 638.095C166.574 634.7 163.985 631.051 162.276 627.147C160.518 623.293 159.715 619.306 159.867 615.186C159.921 611.067 160.978 606.863 163.04 602.575C165.054 598.337 168.073 594.162 172.098 590.049C176.22 585.837 180.377 582.678 184.571 580.574C188.765 578.469 192.969 577.345 197.184 577.202C201.301 577.059 205.33 577.849 209.271 579.571C213.212 581.294 216.941 583.877 220.46 587.32ZM211.797 595.577C209.171 593.006 206.335 591.493 203.291 591.035C200.246 590.578 197.065 591.103 193.747 592.609C190.429 594.116 187.049 596.629 183.606 600.147C180.018 603.814 177.458 607.421 175.927 610.967C174.347 614.465 173.819 617.78 174.343 620.913C174.819 624.094 176.37 626.97 178.996 629.54C181.573 632.062 184.433 633.551 187.576 634.007C190.62 634.465 193.851 633.94 197.266 632.432C200.633 630.876 204.11 628.264 207.698 624.597C210.317 621.921 212.396 619.251 213.937 616.587C215.379 613.924 216.283 611.364 216.648 608.909C217.014 606.454 216.792 604.103 215.984 601.856C215.175 599.609 213.779 597.516 211.797 595.577Z" fill="#DA4E3B"/>
<path d="M192.215 559.154L132.48 592.965L122.849 575.95L149.798 524.964L149.235 523.968L107.429 548.707L100.257 536.036L159.992 502.225L168.701 517.611L140.631 571.262L141.194 572.258L184.991 546.392L192.215 559.154Z" fill="#DA4E3B"/>
<path d="M154.6 478.773L88.2817 496.475L84.4193 482.006L150.737 464.303L154.6 478.773ZM105.67 512.824L93.512 516.069L79.189 462.412L91.3473 459.166L105.67 512.824Z" fill="#DA4E3B"/>
<path d="M145.287 444.531L76.1882 422.412L75.7489 400.576L143.902 375.696L144.229 391.917L87.8054 410.424L87.8368 411.983L144.961 428.31L145.287 444.531ZM131.504 431.597L121.314 431.802L120.417 387.195L130.607 386.99L131.504 431.597Z" fill="#DA4E3B"/>
<path d="M154.837 341.381C153.573 346.568 151.732 351.043 149.316 354.807C146.848 358.487 143.847 361.431 140.312 363.638C136.725 365.761 132.63 367.046 128.025 367.493C123.42 367.94 118.322 367.482 112.731 366.119C107.073 364.74 102.235 362.775 98.2179 360.226C94.2173 357.609 91.0462 354.516 88.7048 350.948C86.3124 347.296 84.8179 343.328 84.2211 339.043C83.6244 334.759 83.909 330.225 85.0751 325.443C85.9784 321.738 87.3211 318.426 89.1034 315.506C90.8184 312.57 92.8644 310.179 95.2415 308.332C97.6186 306.485 100.277 305.242 103.216 304.602C106.171 303.896 109.308 303.911 112.625 304.649L112.885 318.949C110.056 318.259 107.542 318.324 105.344 319.144C103.162 319.897 101.353 321.169 99.9176 322.96C98.4309 324.667 97.4166 326.632 96.8747 328.855C96.3984 330.808 96.3263 332.86 96.6583 335.011C96.9394 337.077 97.7923 339.141 99.2168 341.201C100.59 343.177 102.602 345.024 105.252 346.74C107.919 348.389 111.34 349.723 115.517 350.741C120.973 352.072 125.574 352.373 129.32 351.645C133.082 350.849 136.108 349.268 138.398 346.9C140.621 344.516 142.151 341.606 142.988 338.171C143.892 334.466 143.849 331.423 142.859 329.04C141.819 326.575 140.227 324.616 138.083 323.166C135.888 321.632 133.451 320.502 130.773 319.778L135.999 307.564C139.553 308.502 142.79 309.862 145.709 311.644C148.561 313.41 150.903 315.658 152.736 318.389C154.5 321.103 155.595 324.367 156.021 328.182C156.447 331.997 156.052 336.396 154.837 341.381Z" fill="#DA4E3B"/>
<path d="M170.575 295.6L109.582 264.116L116.451 250.808L177.444 282.293L170.575 295.6ZM111.462 287.909L100.279 282.137L125.753 232.788L136.935 238.56L111.462 287.909Z" fill="#DA4E3B"/>
<path d="M229.865 219.382C225.993 223.057 222.022 225.822 217.951 227.677C213.884 229.435 209.767 230.283 205.6 230.223C201.435 230.065 197.296 228.927 193.183 226.809C189.07 224.691 185.032 221.544 181.071 217.37C177.062 213.146 174.059 208.874 172.063 204.555C170.118 200.189 169.127 195.872 169.092 191.604C169.059 187.238 169.952 183.093 171.771 179.168C173.59 175.243 176.285 171.586 179.855 168.198C182.621 165.573 185.544 163.516 188.624 162.027C191.656 160.488 194.671 159.586 197.669 159.321C200.668 159.056 203.576 159.451 206.393 160.505C209.26 161.512 211.888 163.224 214.277 165.64L206.75 177.802C204.745 175.69 202.597 174.383 200.305 173.882C198.063 173.333 195.854 173.422 193.677 174.15C191.503 174.78 189.586 175.882 187.926 177.457C186.468 178.841 185.296 180.527 184.41 182.515C183.527 184.404 183.126 186.601 183.208 189.104C183.292 191.509 183.983 194.151 185.281 197.03C186.629 199.86 188.783 202.835 191.742 205.953C195.608 210.026 199.313 212.771 202.856 214.188C206.449 215.557 209.849 215.867 213.057 215.117C216.216 214.317 219.079 212.7 221.644 210.265C224.41 207.64 226.022 205.059 226.481 202.521C226.942 199.884 226.664 197.376 225.647 194.995C224.633 192.517 223.197 190.248 221.338 188.188L232.346 180.752C234.826 183.465 236.81 186.361 238.299 189.441C239.74 192.47 240.491 195.629 240.552 198.916C240.565 202.153 239.718 205.49 238.01 208.928C236.301 212.365 233.587 215.85 229.865 219.382Z" fill="#DA4E3B"/>
<path d="M281.43 183.501C277.037 185.873 272.739 187.326 268.537 187.86C264.302 188.334 260.226 187.935 256.308 186.661C252.418 185.294 248.765 183.051 245.348 179.931C241.959 176.718 238.914 172.61 236.214 167.607C232.361 160.468 230.434 153.906 230.432 147.918C230.398 141.87 231.921 136.518 235.002 131.861C238.11 127.11 242.41 123.253 247.901 120.289C252.172 117.984 256.425 116.594 260.66 116.121C264.863 115.586 268.908 116.002 272.798 117.369C276.716 118.642 280.416 120.9 283.899 124.141C287.349 127.321 290.44 131.444 293.174 136.508C295.973 141.694 297.755 146.601 298.521 151.231C299.286 155.86 299.112 160.209 297.999 164.276C296.913 168.25 294.963 171.863 292.149 175.116C289.335 178.368 285.762 181.163 281.43 183.501ZM276.115 172.779C279.349 171.034 281.636 168.775 282.976 166.003C284.316 163.231 284.759 160.038 284.305 156.422C283.85 152.807 282.454 148.833 280.116 144.501C277.679 139.986 274.994 136.472 272.061 133.958C269.189 131.411 266.18 129.923 263.033 129.494C259.854 129.004 256.647 129.632 253.414 131.378C250.241 133.09 247.97 135.379 246.602 138.245C245.262 141.017 244.805 144.258 245.231 147.967C245.719 151.643 247.181 155.739 249.618 160.254C251.396 163.549 253.329 166.327 255.416 168.588C257.532 170.755 259.707 172.378 261.944 173.456C264.18 174.533 266.491 175.019 268.876 174.914C271.262 174.808 273.675 174.096 276.115 172.779Z" fill="#DA4E3B"/>
<path d="M316.709 164.886L302.145 97.809L321.251 93.6604L361.944 134.525L363.062 134.282L351.843 87.0184L366.071 83.929L380.635 151.006L363.358 154.757L320.451 112.032L319.333 112.275L331.039 161.775L316.709 164.886Z" fill="#DA4E3B"/>
<path d="M404.631 152.816L407.403 84.2316L422.367 84.8366L419.595 153.421L404.631 152.816ZM386.632 95.9862L387.14 83.4125L442.631 85.6557L442.122 98.2295L386.632 95.9862Z" fill="#DA4E3B"/>
<path d="M440.094 154.083L481.72 94.6589L502.702 100.719L506.239 173.185L490.652 168.683L489.721 109.31L488.222 108.877L455.681 158.584L440.094 154.083ZM456.534 144.758L459.362 134.966L502.227 147.345L499.399 157.137L456.534 144.758Z" fill="#DA4E3B"/>
<path d="M535.765 193.81C531.187 191.063 527.459 187.977 524.581 184.553C521.799 181.105 519.878 177.365 518.82 173.334C517.857 169.28 517.845 164.987 518.784 160.457C519.724 155.926 521.674 151.194 524.634 146.259C527.631 141.265 530.942 137.228 534.569 134.149C538.255 131.105 542.149 128.994 546.251 127.817C550.448 126.616 554.681 126.366 558.95 127.067C563.219 127.769 567.464 129.386 571.685 131.919C574.955 133.88 577.72 136.146 579.979 138.714C582.274 141.223 583.95 143.886 585.009 146.704C586.067 149.522 586.465 152.43 586.204 155.426C586.002 158.458 585.056 161.449 583.368 164.398L569.634 160.402C571.132 157.905 571.816 155.486 571.685 153.143C571.614 150.837 570.936 148.732 569.652 146.829C568.463 144.903 566.887 143.351 564.925 142.174C563.201 141.14 561.263 140.462 559.111 140.141C557.054 139.796 554.83 139.999 552.44 140.748C550.145 141.473 547.785 142.846 545.359 144.868C542.993 146.925 540.704 149.797 538.493 153.483C535.603 158.298 533.951 162.603 533.535 166.396C533.178 170.225 533.79 173.584 535.372 176.473C536.989 179.303 539.314 181.628 542.346 183.447C545.616 185.409 548.535 186.271 551.103 186.033C553.767 185.771 556.109 184.832 558.131 183.215C560.247 181.574 562.048 179.582 563.535 177.24L573.648 185.854C571.698 188.97 569.439 191.657 566.87 193.916C564.338 196.116 561.496 197.686 558.345 198.625C555.229 199.505 551.787 199.582 548.018 198.857C544.249 198.132 540.164 196.449 535.765 193.81Z" fill="#DA4E3B"/>
<path d="M574.813 222.423L622.978 173.518L633.648 184.027L585.483 232.931L574.813 222.423ZM599.699 168.254L608.529 159.288L648.097 198.257L639.267 207.223L599.699 168.254Z" fill="#DA4E3B"/>
<path d="M630.007 301.659C627.646 296.87 626.184 292.257 625.62 287.82C625.148 283.414 625.56 279.231 626.853 275.269C628.24 271.339 630.555 267.724 633.798 264.425C637.042 261.125 641.244 258.203 646.406 255.659C651.629 253.084 656.6 251.484 661.316 250.859C666.063 250.297 670.48 250.632 674.566 251.864C678.745 253.128 682.439 255.211 685.647 258.113C688.855 261.015 691.548 264.673 693.724 269.089C695.411 272.509 696.508 275.91 697.016 279.293C697.586 282.645 697.553 285.792 696.916 288.734C696.279 291.676 695.039 294.336 693.196 296.713C691.384 299.152 688.97 301.154 685.953 302.719L676.573 291.922C679.184 290.634 681.07 288.97 682.229 286.93C683.418 284.953 683.988 282.816 683.939 280.521C683.983 278.258 683.499 276.1 682.487 274.048C681.598 272.245 680.336 270.625 678.701 269.19C677.158 267.786 675.18 266.751 672.765 266.087C670.443 265.453 667.715 265.329 664.581 265.715C661.478 266.162 657.998 267.336 654.143 269.237C649.106 271.72 645.385 274.443 642.981 277.407C640.607 280.432 639.302 283.587 639.067 286.873C638.893 290.127 639.588 293.341 641.152 296.512C642.838 299.933 644.825 302.238 647.113 303.43C649.493 304.652 651.971 305.131 654.546 304.867C657.214 304.634 659.807 303.935 662.325 302.771L666.161 315.49C662.834 317.053 659.479 318.088 656.097 318.596C652.776 319.074 649.537 318.854 646.38 317.937C643.284 316.989 640.349 315.19 637.573 312.538C634.797 309.887 632.275 306.26 630.007 301.659Z" fill="#DA4E3B"/>
<path d="M648.971 361.547C648.01 356.649 647.897 352.113 648.633 347.942C649.438 343.757 651.029 339.982 653.407 336.619C655.867 333.31 659.093 330.487 663.086 328.15C667.16 325.867 671.987 324.178 677.566 323.084C685.526 321.522 692.365 321.629 698.083 323.405C703.869 325.167 708.529 328.209 712.062 332.533C715.676 336.911 718.084 342.162 719.285 348.285C720.219 353.048 720.284 357.521 719.48 361.706C718.744 365.878 717.146 369.618 714.686 372.927C712.307 376.29 709.054 379.154 704.925 381.518C700.864 383.869 696.01 385.599 690.363 386.706C684.58 387.841 679.365 388.086 674.717 387.444C670.069 386.801 665.968 385.345 662.414 383.074C658.941 380.859 656.069 377.924 653.798 374.272C651.527 370.619 649.918 366.378 648.971 361.547ZM660.787 359.653C661.494 363.259 662.973 366.113 665.222 368.216C667.471 370.318 670.39 371.689 673.977 372.327C677.565 372.966 681.774 372.812 686.604 371.864C691.639 370.877 695.792 369.356 699.063 367.301C702.347 365.314 704.661 362.882 706.004 360.004C707.415 357.113 707.767 353.865 707.06 350.259C706.366 346.721 704.854 343.873 702.523 341.716C700.274 339.614 697.314 338.216 693.646 337.523C689.99 336.897 685.645 337.078 680.61 338.066C676.937 338.787 673.71 339.808 670.931 341.13C668.234 342.507 666.039 344.104 664.346 345.919C662.653 347.735 661.503 349.798 660.897 352.107C660.29 354.416 660.253 356.932 660.787 359.653Z" fill="#DA4E3B"/>
<path d="M656.28 400.76L724.658 406.756L722.95 426.233L671.851 452.968L671.752 454.108L720.216 457.417L718.944 471.922L650.566 465.926L652.111 448.314L705.643 420.017L705.742 418.878L654.999 415.368L656.28 400.76Z" fill="#DA4E3B"/>
<path d="M641.718 488.305L706.391 511.303L701.373 525.413L636.701 502.415L641.718 488.305ZM701.329 487.979L713.186 492.195L694.578 544.521L682.722 540.305L701.329 487.979Z" fill="#DA4E3B"/>
<path d="M629.986 521.795L674.382 579.178L662.369 597.418L592.117 579.293L601.041 565.743L658.017 582.472L658.875 581.169L621.062 535.344L629.986 521.795ZM634.012 540.262L642.524 545.868L617.984 583.129L609.472 577.523L634.012 540.262Z" fill="#DA4E3B"/>
<path d="M563.66 601.369C567.642 597.812 571.694 595.168 575.818 593.436C579.937 591.802 584.078 591.078 588.241 591.263C592.399 591.546 596.502 592.808 600.549 595.05C604.597 597.291 608.538 600.557 612.372 604.849C616.252 609.192 619.124 613.552 620.989 617.929C622.802 622.353 623.663 626.698 623.57 630.964C623.471 635.329 622.454 639.446 620.517 643.314C618.581 647.182 615.777 650.756 612.106 654.036C609.262 656.576 606.278 658.544 603.155 659.94C600.079 661.387 597.038 662.198 594.032 662.372C591.027 662.547 588.133 662.064 585.349 660.926C582.513 659.833 579.938 658.043 577.623 655.555L585.513 643.626C587.453 645.797 589.561 647.168 591.837 647.738C594.061 648.355 596.272 648.332 598.47 647.67C600.662 647.106 602.611 646.062 604.318 644.538C605.817 643.198 607.039 641.548 607.984 639.588C608.924 637.726 609.391 635.543 609.385 633.038C609.373 630.631 608.762 627.97 607.551 625.054C606.289 622.184 604.225 619.146 601.362 615.94C597.62 611.752 594 608.896 590.501 607.373C586.951 605.897 583.561 605.485 580.333 606.138C577.15 606.842 574.241 608.373 571.604 610.728C568.76 613.269 567.07 615.801 566.535 618.324C565.995 620.945 566.197 623.461 567.142 625.871C568.081 628.379 569.448 630.69 571.244 632.805L560.017 639.906C557.62 637.12 555.724 634.165 554.329 631.042C552.98 627.971 552.324 624.791 552.362 621.503C552.446 618.267 553.393 614.957 555.204 611.573C557.016 608.188 559.834 604.787 563.66 601.369Z" fill="#DA4E3B"/>
<path d="M524.749 630.169L557.16 690.675L543.958 697.747L511.548 637.24L524.749 630.169ZM569.095 670.007L575.036 681.099L526.081 707.322L520.139 696.23L569.095 670.007Z" fill="#DA4E3B"/>
</svg>
